<svg xmlns="http://www.w3.org/2000/svg" width="24" height="24" viewBox="0 0 24 24"><g id="advanced" transform="translate(-172 -508)"><g id="card-add"><path id="Vector" fill="none" stroke="#292d32" stroke-linecap="round" stroke-linejoin="round" stroke-width="1.5" d="M0,0H11.5" transform="translate(174 516.5)"/><path id="Vector-2" fill="none" stroke="#292d32" stroke-linecap="round" stroke-linejoin="round" stroke-width="1.5" d="M0,0H2" data-name="Vector" transform="translate(178 524.5)"/><path id="Vector-3" fill="none" stroke="#292d32" stroke-linecap="round" stroke-linejoin="round" stroke-width="1.5" d="M0,0H4" data-name="Vector" transform="translate(182.5 524.5)"/><path id="Vector-4" fill="none" stroke="#292d32" stroke-linecap="round" stroke-linejoin="round" stroke-width="1.5" d="M20,8.53v4.08c0,3.51-.89,4.39-4.44,4.39H4.44C.89,17,0,16.12,0,12.61V4.39C0,.88.89,0,4.44,0H11.5" data-name="Vector" transform="translate(174 511.5)"/><path id="Vector-5" fill="none" stroke="#292d32" stroke-linecap="round" stroke-width="1.5" d="M0,0H5.5" data-name="Vector" transform="translate(188.5 514.25)"/><path id="Vector-6" fill="none" stroke="#292d32" stroke-linecap="round" stroke-width="1.5" d="M0,5.5V0" data-name="Vector" transform="translate(191.25 511.5)"/><path id="Vector-7" fill="none" d="M0,0H24V24H0Z" data-name="Vector" opacity="0" transform="translate(172 508)"/></g></g></svg>