<svg xmlns="http://www.w3.org/2000/svg" width="24" height="24" viewBox="0 0 24 24"><g id="vuesax_linear_calendar" data-name="vuesax/linear/calendar" transform="translate(-492 -188)"><g id="calendar"><path id="Vector" fill="none" stroke="#292d32" stroke-linecap="round" stroke-linejoin="round" stroke-width="1.5" d="M0,0V3" transform="translate(500 190)"/><path id="Vector-2" fill="none" stroke="#292d32" stroke-linecap="round" stroke-linejoin="round" stroke-width="1.5" d="M0,0V3" data-name="Vector" transform="translate(508 190)"/><path id="Vector-3" fill="none" stroke="#292d32" stroke-linecap="round" stroke-linejoin="round" stroke-width="1.5" d="M0,0H17" data-name="Vector" transform="translate(495.5 197.09)"/><path id="Vector-4" fill="none" stroke="#292d32" stroke-linecap="round" stroke-linejoin="round" stroke-width="1.5" d="M18,5v8.5c0,3-1.5,5-5,5H5c-3.5,0-5-2-5-5V5C0,2,1.5,0,5,0h8C16.5,0,18,2,18,5Z" data-name="Vector" transform="translate(495 191.5)"/><path id="Vector-5" fill="none" d="M0,0H24V24H0Z" data-name="Vector" opacity="0" transform="translate(492 188)"/><path id="Vector-6" fill="none" stroke="#292d32" stroke-linecap="round" stroke-linejoin="round" stroke-width="2" d="M.495.5H.5" data-name="Vector" transform="translate(507.2 201.2)"/><path id="Vector-7" fill="none" stroke="#292d32" stroke-linecap="round" stroke-linejoin="round" stroke-width="2" d="M.495.5H.5" data-name="Vector" transform="translate(507.2 204.2)"/><path id="Vector-8" fill="none" stroke="#292d32" stroke-linecap="round" stroke-linejoin="round" stroke-width="2" d="M.495.5H.5" data-name="Vector" transform="translate(503.501 201.2)"/><path id="Vector-9" fill="none" stroke="#292d32" stroke-linecap="round" stroke-linejoin="round" stroke-width="2" d="M.495.5H.5" data-name="Vector" transform="translate(503.501 204.2)"/><path id="Vector-10" fill="none" stroke="#292d32" stroke-linecap="round" stroke-linejoin="round" stroke-width="2" d="M.495.5H.5" data-name="Vector" transform="translate(499.8 201.2)"/><path id="Vector-11" fill="none" stroke="#292d32" stroke-linecap="round" stroke-linejoin="round" stroke-width="2" d="M.495.5H.5" data-name="Vector" transform="translate(499.8 204.2)"/></g></g></svg>