<svg xmlns="http://www.w3.org/2000/svg" width="24" height="24" viewBox="0 0 24 24"><g id="vuesax_linear_document-copy" data-name="vuesax/linear/document-copy" transform="translate(-684 -188)"><path id="Vector" fill="none" stroke="#292d32" stroke-linecap="round" stroke-linejoin="round" stroke-width="1.5" d="M15,6.4v3c0,4-1.6,5.6-5.6,5.6H5.6C1.6,15,0,13.4,0,9.4V5.6C0,1.6,1.6,0,5.6,0h3" transform="translate(686 195)"/><path id="Vector-2" fill="none" stroke="#292d32" stroke-linecap="round" stroke-linejoin="round" stroke-width="1.5" d="M6.4,6.4H3.2C.8,6.4,0,5.6,0,3.2V0Z" data-name="Vector" transform="translate(694.6 195)"/><path id="Vector-3" fill="none" stroke="#292d32" stroke-linecap="round" stroke-linejoin="round" stroke-width="1.5" d="M0,0H4" data-name="Vector" transform="translate(695.6 190)"/><path id="Vector-4" fill="none" stroke="#292d32" stroke-linecap="round" stroke-linejoin="round" stroke-width="1.5" d="M0,3A3,3,0,0,1,3,0H5.62" data-name="Vector" transform="translate(691 190)"/><path id="Vector-5" fill="none" stroke="#292d32" stroke-linecap="round" stroke-linejoin="round" stroke-width="1.5" d="M2.81,0V6.19A2.812,2.812,0,0,1,0,9" data-name="Vector" transform="translate(703.19 196)"/><path id="Vector-6" fill="none" stroke="#292d32" stroke-linecap="round" stroke-linejoin="round" stroke-width="1.5" d="M6,6H3C.75,6,0,5.25,0,3V0Z" data-name="Vector" transform="translate(700 190)"/><path id="Vector-7" fill="none" d="M0,0H24V24H0Z" data-name="Vector" opacity="0" transform="translate(684 188)"/></g></svg>