<svg xmlns="http://www.w3.org/2000/svg" width="24" height="24" viewBox="0 0 24 24"><g id="vuesax_linear_more" data-name="vuesax/linear/more" transform="translate(212 -556) rotate(90)"><g id="more"><path id="Vector" fill="none" stroke="#67748e" stroke-width="1.5" d="M2,0A2,2,0,1,0,4,2,2.006,2.006,0,0,0,2,0Z" transform="translate(559 198)"/><path id="Vector-2" fill="none" stroke="#67748e" stroke-width="1.5" d="M2,0A2,2,0,1,0,4,2,2.006,2.006,0,0,0,2,0Z" data-name="Vector" transform="translate(573 198)"/><path id="Vector-3" fill="none" stroke="#67748e" stroke-width="1.5" d="M2,0A2,2,0,1,0,4,2,2.006,2.006,0,0,0,2,0Z" data-name="Vector" transform="translate(566 198)"/><path id="Vector-4" fill="none" d="M0,0H24V24H0Z" data-name="Vector" opacity="0" transform="translate(556 188)"/></g></g></svg>