<svg xmlns="http://www.w3.org/2000/svg" width="24" height="24" viewBox="0 0 24 24"><g id="maximize" transform="translate(-748 -316)"><g id="maximize-3"><path id="Vector" fill="none" stroke="#292d32" stroke-linecap="round" stroke-linejoin="round" stroke-width="1.5" d="M7,20h6c5,0,7-2,7-7V7c0-5-2-7-7-7H7C2,0,0,2,0,7v6C0,18,2,20,7,20Z" transform="translate(750 318)"/><path id="Vector-2" fill="none" stroke="#292d32" stroke-linecap="round" stroke-linejoin="round" stroke-width="1.5" d="M12,0,0,12" data-name="Vector" transform="translate(754 322)"/><path id="Vector-3" fill="none" stroke="#292d32" stroke-linecap="round" stroke-linejoin="round" stroke-width="1.5" d="M4,4V0H0" data-name="Vector" transform="translate(762 322)"/><path id="Vector-4" fill="none" stroke="#292d32" stroke-linecap="round" stroke-linejoin="round" stroke-width="1.5" d="M0,0V4H4" data-name="Vector" transform="translate(754 330)"/><path id="Vector-5" fill="none" d="M0,0H24V24H0Z" data-name="Vector" opacity="0" transform="translate(748 316)"/></g></g></svg>