<svg xmlns="http://www.w3.org/2000/svg" width="24" height="24" viewBox="0 0 24 24"><g id="people" transform="translate(-620 -252)"><g id="people-2" data-name="people"><g id="Group"><path id="Vector" fill="none" stroke="#fff" stroke-linecap="round" stroke-linejoin="round" stroke-width="1.5" d="M2.67,5.16a.605.605,0,0,0-.19,0,2.585,2.585,0,1,1,.19,0Z" transform="translate(635.33 254)"/><path id="Vector-2" fill="none" stroke="#fff" stroke-linecap="round" stroke-linejoin="round" stroke-width="1.5" d="M.03,4.94a5.635,5.635,0,0,0,3.94-.72A1.911,1.911,0,0,0,3.97.8,5.67,5.67,0,0,0,0,.09" data-name="Vector" transform="translate(636.94 261.5)"/></g><g id="Group-2" data-name="Group"><path id="Vector-3" fill="none" stroke="#fff" stroke-linecap="round" stroke-linejoin="round" stroke-width="1.5" d="M2.49,5.16a.605.605,0,0,1,.19,0,2.585,2.585,0,1,0-.19,0Z" data-name="Vector" transform="translate(623.48 254)"/><path id="Vector-4" fill="none" stroke="#fff" stroke-linecap="round" stroke-linejoin="round" stroke-width="1.5" d="M5,4.94a5.635,5.635,0,0,1-3.94-.72,1.911,1.911,0,0,1,0-3.42A5.67,5.67,0,0,1,5.027.09" data-name="Vector" transform="translate(622.003 261.5)"/></g><g id="Group-3" data-name="Group"><path id="Vector-5" fill="none" stroke="#fff" stroke-linecap="round" stroke-linejoin="round" stroke-width="1.5" d="M2.67,5.16a.605.605,0,0,0-.19,0,2.585,2.585,0,1,1,.19,0Z" data-name="Vector" transform="translate(629.33 261.47)"/><path id="Vector-6" fill="none" stroke="#fff" stroke-linecap="round" stroke-linejoin="round" stroke-width="1.5" d="M1.058.795a1.911,1.911,0,0,0,0,3.42,5.677,5.677,0,0,0,5.82,0,1.911,1.911,0,0,0,0-3.42A5.723,5.723,0,0,0,1.058.795Z" data-name="Vector" transform="translate(628.032 268.985)"/></g><path id="Vector-7" fill="none" d="M0,0H24V24H0Z" data-name="Vector" opacity="0" transform="translate(620 252)"/></g></g></svg>