<svg xmlns="http://www.w3.org/2000/svg" width="24" height="24" viewBox="0 0 24 24"><g id="vuesax_linear_shapes" data-name="vuesax/linear/shapes" transform="translate(-748 -188)"><g id="shapes"><path id="Vector" fill="none" stroke="#292d32" stroke-linecap="round" stroke-linejoin="round" stroke-width="1.5" d="M11.43,13H2.4A2.4,2.4,0,0,1,.3,9.448l2.33-4.24,2.18-3.97a2.4,2.4,0,0,1,4.2,0l2.19,3.97,1.05,1.91,1.28,2.33A2.4,2.4,0,0,1,11.43,13Z" transform="translate(750 190.003)"/><path id="Vector-2" fill="none" stroke="#292d32" stroke-linecap="round" stroke-linejoin="round" stroke-width="1.5" d="M13,6.5a6.5,6.5,0,0,1-13,0c0-.17.01-.33.02-.5H4.43a2.4,2.4,0,0,0,2.1-3.55L5.25.12A6.386,6.386,0,0,1,6.5,0,6.5,6.5,0,0,1,13,6.5Z" data-name="Vector" transform="translate(757 197)"/><path id="Vector-3" fill="none" d="M0,0H24V24H0Z" data-name="Vector" opacity="0" transform="translate(748 188)"/></g></g></svg>