<svg xmlns="http://www.w3.org/2000/svg" width="24" height="24" viewBox="0 0 24 24"><g id="tables" transform="translate(-364 -252)"><g id="grid-8"><path id="Vector" fill="none" stroke="#292d32" stroke-linecap="round" stroke-linejoin="round" stroke-width="1.5" d="M7,20h6c5,0,7-2,7-7V7c0-5-2-7-7-7H7C2,0,0,2,0,7v6C0,18,2,20,7,20Z" transform="translate(366 254)"/><path id="Vector-2" fill="none" stroke="#292d32" stroke-linecap="round" stroke-linejoin="round" stroke-width="1.5" d="M0,0H20" data-name="Vector" transform="translate(366 264)"/><path id="Vector-3" fill="none" stroke="#292d32" stroke-linecap="round" stroke-linejoin="round" stroke-width="1.5" d="M0,0V9.5" data-name="Vector" transform="translate(372.25 264)"/><path id="Vector-4" fill="none" stroke="#292d32" stroke-linecap="round" stroke-linejoin="round" stroke-width="1.5" d="M0,10V0" data-name="Vector" transform="translate(379.75 264)"/><path id="Vector-5" fill="none" stroke="#292d32" stroke-linecap="round" stroke-linejoin="round" stroke-width="1.5" d="M0,10V0" data-name="Vector" transform="translate(372.25 254)"/><path id="Vector-6" fill="none" stroke="#292d32" stroke-linecap="round" stroke-linejoin="round" stroke-width="1.5" d="M0,9.46V0" data-name="Vector" transform="translate(379.75 254.54)"/><path id="Vector-7" fill="none" d="M0,0H24V24H0Z" data-name="Vector" opacity="0" transform="translate(364 252)"/></g></g></svg>