<svg xmlns="http://www.w3.org/2000/svg" width="90" height="84.379" viewBox="0 0 90 84.379"><g id="excel" transform="translate(0 -15.989)"><path id="Path_324" fill="#eceff1" d="M298.188,141.886H258.813A2.814,2.814,0,0,1,256,139.073V82.823a2.814,2.814,0,0,1,2.813-2.812h39.375A2.814,2.814,0,0,1,301,82.823v56.25A2.814,2.814,0,0,1,298.188,141.886Z" data-name="Path 324" transform="translate(-211 -52.768)"/><g id="Group_431" data-name="Group 431" transform="translate(45 38.493)"><path id="Path_325" fill="#388e3c" d="M270.063,149.636h-11.25a2.813,2.813,0,0,1,0-5.625h11.25a2.812,2.812,0,0,1,0,5.625Z" data-name="Path 325" transform="translate(-256 -144.011)"/><path id="Path_326" fill="#388e3c" d="M270.063,213.636h-11.25a2.813,2.813,0,0,1,0-5.625h11.25a2.812,2.812,0,0,1,0,5.625Z" data-name="Path 326" transform="translate(-256 -196.761)"/><path id="Path_327" fill="#388e3c" d="M270.063,277.636h-11.25a2.813,2.813,0,0,1,0-5.625h11.25a2.813,2.813,0,0,1,0,5.625Z" data-name="Path 327" transform="translate(-256 -249.511)"/><path id="Path_328" fill="#388e3c" d="M270.063,341.636h-11.25a2.813,2.813,0,0,1,0-5.625h11.25a2.813,2.813,0,0,1,0,5.625Z" data-name="Path 328" transform="translate(-256 -302.261)"/><path id="Path_329" fill="#388e3c" d="M392.438,149.636h-5.625a2.813,2.813,0,0,1,0-5.625h5.625a2.812,2.812,0,0,1,0,5.625Z" data-name="Path 329" transform="translate(-361.5 -144.011)"/><path id="Path_330" fill="#388e3c" d="M392.438,213.636h-5.625a2.813,2.813,0,0,1,0-5.625h5.625a2.812,2.812,0,0,1,0,5.625Z" data-name="Path 330" transform="translate(-361.5 -196.761)"/><path id="Path_331" fill="#388e3c" d="M392.438,277.636h-5.625a2.813,2.813,0,0,1,0-5.625h5.625a2.813,2.813,0,0,1,0,5.625Z" data-name="Path 331" transform="translate(-361.5 -249.511)"/><path id="Path_332" fill="#388e3c" d="M392.438,341.636h-5.625a2.813,2.813,0,0,1,0-5.625h5.625a2.813,2.813,0,0,1,0,5.625Z" data-name="Path 332" transform="translate(-361.5 -302.261)"/></g><path id="Path_333" fill="#2e7d32" d="M49.607,16.64a2.764,2.764,0,0,0-2.312-.6l-45,8.438A2.8,2.8,0,0,0,0,27.243V89.118A2.809,2.809,0,0,0,2.3,91.88l45,8.438a2.647,2.647,0,0,0,.518.051,2.813,2.813,0,0,0,2.813-2.812V18.806A2.805,2.805,0,0,0,49.607,16.64Z" data-name="Path 333" transform="translate(0 0)"/><path id="Path_334" fill="#fafafa" d="M104.6,186.3l-8.893-10.164,8.994-11.565a2.814,2.814,0,1,0-4.438-3.459l-8.331,10.71-7.02-8.021a2.81,2.81,0,0,0-4.23,3.7l7.734,8.842-7.841,10.08a2.814,2.814,0,0,0,4.444,3.454l7.172-9.225,8.179,9.343a2.808,2.808,0,1,0,4.23-3.7Z" data-name="Path 334" transform="translate(-65.924 -118.718)"/></g></svg>