<svg xmlns="http://www.w3.org/2000/svg" width="104" height="100.346" viewBox="0 0 104 100.346"><g id="file-2" transform="translate(0 -8.227)"><path id="Path_337" fill="#f6c358" d="M190.091,189.473H110.669V152.307h75.262a4.16,4.16,0,0,1,4.16,4.16Z" data-name="Path 337" transform="translate(-86.091 -112.082)"/><path id="Path_338" fill="#e1e6e9" d="M80.694,8.229,69.142,19.781v49.65h73.289V8.229Z" data-name="Path 338" transform="translate(-53.787 -0.002)"/><path id="Path_339" fill="#ebf0f3" d="M80.693,19.779V8.227L69.141,19.78Z" data-name="Path 339" transform="translate(-53.786)"/><path id="Path_340" fill="#fcd462" d="M99.84,197.077H4.16A4.16,4.16,0,0,1,0,192.917V126.158A4.16,4.16,0,0,1,4.16,122H28.142a4.161,4.161,0,0,1,3.2,1.507l8.986,13.626a4.16,4.16,0,0,0,3.2,1.507h56.3A4.16,4.16,0,0,1,104,142.8v50.119A4.16,4.16,0,0,1,99.84,197.077Z" data-name="Path 340" transform="translate(0 -88.504)"/><g id="Group_432" data-name="Group 432" transform="translate(32.642 16.987)"><rect id="Rectangle_277" width="50.267" height="2.787" fill="#d5d6db" data-name="Rectangle 277" transform="translate(0 0)"/><rect id="Rectangle_278" width="39.47" height="2.787" fill="#d5d6db" data-name="Rectangle 278" transform="translate(10.797 9.769)"/><rect id="Rectangle_279" width="39.47" height="2.787" fill="#d5d6db" data-name="Rectangle 279" transform="translate(10.797 19.545)"/></g></g></svg>