<svg xmlns="http://www.w3.org/2000/svg" width="107.42" height="100.708" viewBox="0 0 107.42 100.708"><g id="word" transform="translate(0 -15.995)"><path id="Path_353" fill="#eceff1" d="M306.353,153.855h-47A3.354,3.354,0,0,1,256,150.5V83.361A3.358,3.358,0,0,1,259.357,80h47a3.358,3.358,0,0,1,3.357,3.357V150.5A3.354,3.354,0,0,1,306.353,153.855Z" data-name="Path 353" transform="translate(-202.29 -50.579)"/><g id="Group_434" data-name="Group 434" transform="translate(53.71 42.852)"><path id="Path_354" fill="#1976d2" d="M292.926,150.718H259.357a3.357,3.357,0,1,1,0-6.714h33.569a3.357,3.357,0,0,1,0,6.714Z" data-name="Path 354" transform="translate(-256 -144.004)"/><path id="Path_355" fill="#1976d2" d="M292.926,214.718H259.357a3.357,3.357,0,1,1,0-6.714h33.569a3.357,3.357,0,0,1,0,6.714Z" data-name="Path 355" transform="translate(-256 -194.576)"/><path id="Path_356" fill="#1976d2" d="M292.926,278.718H259.357a3.357,3.357,0,1,1,0-6.714h33.569a3.357,3.357,0,0,1,0,6.714Z" data-name="Path 356" transform="translate(-256 -245.149)"/><path id="Path_357" fill="#1976d2" d="M292.926,342.718H259.357a3.357,3.357,0,1,1,0-6.714h33.569a3.357,3.357,0,1,1,0,6.714Z" data-name="Path 357" transform="translate(-256 -295.722)"/></g><path id="Path_358" fill="#1565c0" d="M59.209,16.776a3.3,3.3,0,0,0-2.759-.718L2.739,26.128A3.359,3.359,0,0,0,0,29.425v73.851a3.353,3.353,0,0,0,2.739,3.3l53.71,10.071a3.21,3.21,0,0,0,.618.06,3.357,3.357,0,0,0,3.357-3.357V19.354A3.334,3.334,0,0,0,59.209,16.776Z" data-name="Path 358" transform="translate(0 0)"/><path id="Path_359" fill="#fafafa" d="M94.19,209.928a3.359,3.359,0,0,1-2.92,2.954,2.891,2.891,0,0,1-.416.027,3.366,3.366,0,0,1-3.142-2.175l-6.929-18.476-6.929,18.476a3.357,3.357,0,0,1-6.465-.712l-3.357-23.5a3.357,3.357,0,0,1,6.647-.947l1.5,10.5,5.458-14.562c.98-2.618,5.3-2.618,6.291,0l5.143,13.709,1.806-16.261a3.357,3.357,0,1,1,6.673.745Z" data-name="Path 359" transform="translate(-50.571 -126.417)"/></g></svg>