<svg xmlns="http://www.w3.org/2000/svg" width="24" height="24" viewBox="0 0 24 24"><g id="safari" transform="translate(0 0.326)"><circle id="Ellipse_14" cx="12" cy="12" r="12" fill="#1da2f8" data-name="Ellipse 14" transform="translate(0 -0.326)"/><g id="Group_233" data-name="Group 233" transform="translate(0.817 0.401)"><path id="Path_222" fill="#f2f2f2" d="M253.025,18.326a.147.147,0,0,1-.147-.147v-.672a.147.147,0,1,1,.294,0v.672A.147.147,0,0,1,253.025,18.326Z" data-name="Path 222" transform="translate(-241.797 -17.36)"/><path id="Path_223" fill="#f2f2f2" d="M253.025,475.076a.147.147,0,0,1-.147-.147v-.672a.147.147,0,1,1,.294,0v.672A.147.147,0,0,1,253.025,475.076Z" data-name="Path 223" transform="translate(-241.797 -452.62)"/><path id="Path_224" fill="#f2f2f2" d="M212.243,21.895a.147.147,0,0,1-.145-.121l-.117-.662a.147.147,0,1,1,.289-.051l.117.662a.147.147,0,0,1-.119.17Z" data-name="Path 224" transform="translate(-202.823 -20.771)"/><path id="Path_225" fill="#f2f2f2" d="M291.557,471.7a.147.147,0,0,1-.145-.121l-.117-.662a.147.147,0,1,1,.289-.051l.117.662a.147.147,0,0,1-.119.17Z" data-name="Path 225" transform="translate(-278.405 -449.417)"/><path id="Path_226" fill="#f2f2f2" d="M172.7,32.488a.147.147,0,0,1-.138-.1l-.23-.632a.147.147,0,0,1,.276-.1l.23.632a.147.147,0,0,1-.138.2Z" data-name="Path 226" transform="translate(-165.035 -30.895)"/><path id="Path_227" fill="#f2f2f2" d="M328.921,461.693a.147.147,0,0,1-.138-.1l-.23-.632a.147.147,0,1,1,.276-.1l.23.632a.147.147,0,0,1-.138.2Z" data-name="Path 227" transform="translate(-313.903 -439.905)"/><path id="Path_228" fill="#f2f2f2" d="M135.6,49.787a.147.147,0,0,1-.127-.073l-.336-.582a.147.147,0,0,1,.254-.147l.336.582a.147.147,0,0,1-.127.22Z" data-name="Path 228" transform="translate(-129.578 -47.427)"/><path id="Path_229" fill="#f2f2f2" d="M363.977,445.344a.147.147,0,0,1-.127-.073l-.336-.582a.147.147,0,0,1,.254-.147l.336.582a.147.147,0,0,1-.054.2A.145.145,0,0,1,363.977,445.344Z" data-name="Path 229" transform="translate(-347.208 -424.373)"/><path id="Path_230" fill="#f2f2f2" d="M102.068,73.27a.147.147,0,0,1-.113-.052l-.432-.515a.147.147,0,0,1,.225-.189l.432.515a.147.147,0,0,1-.113.241Z" data-name="Path 230" transform="translate(-97.531 -69.869)"/><path id="Path_231" fill="#f2f2f2" d="M395.662,423.161a.147.147,0,0,1-.113-.052l-.432-.515a.147.147,0,0,1,.225-.189l.432.515a.147.147,0,0,1-.112.241Z" data-name="Path 231" transform="translate(-377.312 -403.298)"/><path id="Path_232" fill="#f2f2f2" d="M73.123,102.216a.146.146,0,0,1-.094-.034l-.515-.432a.147.147,0,1,1,.189-.225l.515.432a.147.147,0,0,1-.094.259Z" data-name="Path 232" transform="translate(-69.869 -97.532)"/><path id="Path_233" fill="#f2f2f2" d="M423.014,395.809a.146.146,0,0,1-.094-.034l-.515-.432a.147.147,0,1,1,.189-.225l.515.432a.147.147,0,0,1-.094.259Z" data-name="Path 233" transform="translate(-403.298 -377.311)"/><path id="Path_234" fill="#f2f2f2" d="M49.641,135.748a.146.146,0,0,1-.073-.02l-.582-.336a.147.147,0,1,1,.147-.254l.582.336a.147.147,0,0,1-.074.274Z" data-name="Path 234" transform="translate(-47.428 -129.578)"/><path id="Path_235" fill="#f2f2f2" d="M445.2,364.122a.146.146,0,0,1-.073-.02l-.582-.336a.147.147,0,1,1,.147-.254l.582.336a.147.147,0,0,1-.074.274Z" data-name="Path 235" transform="translate(-424.375 -347.207)"/><path id="Path_236" fill="#f2f2f2" d="M32.341,172.85a.146.146,0,0,1-.05-.009l-.632-.23a.147.147,0,0,1,.1-.276l.632.23a.147.147,0,0,1-.05.285Z" data-name="Path 236" transform="translate(-30.894 -165.035)"/><path id="Path_237" fill="#f2f2f2" d="M461.547,329.067a.148.148,0,0,1-.05-.009l-.632-.23a.147.147,0,0,1,.1-.276l.632.23a.147.147,0,0,1-.05.285Z" data-name="Path 237" transform="translate(-439.907 -313.902)"/><path id="Path_238" fill="#f2f2f2" d="M21.746,212.391l-.026,0-.662-.117a.147.147,0,0,1,.051-.289l.662.117a.147.147,0,0,1-.025.292Z" data-name="Path 238" transform="translate(-20.769 -202.824)"/><path id="Path_239" fill="#f2f2f2" d="M471.558,291.705l-.026,0-.662-.117a.147.147,0,1,1,.051-.289l.662.117a.147.147,0,0,1-.025.292Z" data-name="Path 239" transform="translate(-449.418 -278.406)"/><path id="Path_240" fill="#f2f2f2" d="M18.179,253.172h-.672a.147.147,0,1,1,0-.294h.672a.147.147,0,1,1,0,.294Z" data-name="Path 240" transform="translate(-17.36 -241.797)"/><path id="Path_241" fill="#f2f2f2" d="M474.929,253.172h-.672a.147.147,0,1,1,0-.294h.672a.147.147,0,1,1,0,.294Z" data-name="Path 241" transform="translate(-452.62 -241.797)"/><path id="Path_242" fill="#f2f2f2" d="M21.084,291.705a.147.147,0,0,1-.025-.292l.662-.117a.147.147,0,0,1,.051.289l-.662.117Z" data-name="Path 242" transform="translate(-20.769 -278.406)"/><path id="Path_243" fill="#f2f2f2" d="M470.894,212.391a.147.147,0,0,1-.025-.292l.662-.117a.147.147,0,1,1,.051.289l-.662.117Z" data-name="Path 243" transform="translate(-449.416 -202.824)"/><path id="Path_244" fill="#f2f2f2" d="M31.709,329.067a.147.147,0,0,1-.05-.285l.632-.23a.147.147,0,0,1,.1.276l-.632.23A.145.145,0,0,1,31.709,329.067Z" data-name="Path 244" transform="translate(-30.894 -313.902)"/><path id="Path_245" fill="#f2f2f2" d="M460.916,172.85a.147.147,0,0,1-.05-.285l.632-.23a.147.147,0,0,1,.1.276l-.632.23A.147.147,0,0,1,460.916,172.85Z" data-name="Path 245" transform="translate(-439.907 -165.035)"/><path id="Path_246" fill="#f2f2f2" d="M49.06,364.121a.147.147,0,0,1-.074-.274l.582-.336a.147.147,0,1,1,.147.254l-.582.336A.146.146,0,0,1,49.06,364.121Z" data-name="Path 246" transform="translate(-47.428 -347.206)"/><path id="Path_247" fill="#f2f2f2" d="M444.619,135.747a.147.147,0,0,1-.074-.274l.582-.336a.147.147,0,1,1,.147.254l-.582.336A.146.146,0,0,1,444.619,135.747Z" data-name="Path 247" transform="translate(-424.376 -129.577)"/><path id="Path_248" fill="#f2f2f2" d="M72.607,395.809a.147.147,0,0,1-.094-.259l.515-.432a.147.147,0,1,1,.189.225l-.515.432A.146.146,0,0,1,72.607,395.809Z" data-name="Path 248" transform="translate(-69.868 -377.312)"/><path id="Path_249" fill="#f2f2f2" d="M422.5,102.216a.147.147,0,0,1-.094-.259l.515-.432a.147.147,0,0,1,.189.225l-.515.432A.147.147,0,0,1,422.5,102.216Z" data-name="Path 249" transform="translate(-403.298 -97.532)"/><path id="Path_250" fill="#f2f2f2" d="M101.637,423.161a.147.147,0,0,1-.112-.241l.432-.515a.147.147,0,0,1,.225.189l-.432.515A.147.147,0,0,1,101.637,423.161Z" data-name="Path 250" transform="translate(-97.532 -403.298)"/><path id="Path_251" fill="#f2f2f2" d="M395.231,73.27a.147.147,0,0,1-.112-.241l.432-.515a.147.147,0,0,1,.225.189l-.432.515A.147.147,0,0,1,395.231,73.27Z" data-name="Path 251" transform="translate(-377.312 -69.869)"/><path id="Path_252" fill="#f2f2f2" d="M135.265,445.345a.147.147,0,0,1-.127-.22l.336-.582a.147.147,0,0,1,.254.147l-.336.582A.147.147,0,0,1,135.265,445.345Z" data-name="Path 252" transform="translate(-129.578 -424.374)"/><path id="Path_253" fill="#f2f2f2" d="M363.64,49.788a.147.147,0,0,1-.127-.22l.336-.582a.147.147,0,0,1,.254.147l-.336.582A.147.147,0,0,1,363.64,49.788Z" data-name="Path 253" transform="translate(-347.208 -47.427)"/><path id="Path_254" fill="#f2f2f2" d="M172.473,461.692a.147.147,0,0,1-.138-.2l.23-.632a.147.147,0,1,1,.276.1l-.23.632A.147.147,0,0,1,172.473,461.692Z" data-name="Path 254" transform="translate(-165.035 -439.905)"/><path id="Path_255" fill="#f2f2f2" d="M328.691,32.488a.147.147,0,0,1-.138-.2l.23-.632a.147.147,0,0,1,.276.1l-.23.632A.147.147,0,0,1,328.691,32.488Z" data-name="Path 255" transform="translate(-313.903 -30.895)"/><path id="Path_256" fill="#f2f2f2" d="M212.128,471.706l-.026,0a.147.147,0,0,1-.119-.17l.117-.662a.147.147,0,1,1,.289.051l-.117.662A.147.147,0,0,1,212.128,471.706Z" data-name="Path 256" transform="translate(-202.824 -449.419)"/><path id="Path_257" fill="#f2f2f2" d="M291.442,21.9l-.026,0a.147.147,0,0,1-.119-.17l.117-.662a.147.147,0,1,1,.289.051l-.117.662A.147.147,0,0,1,291.442,21.9Z" data-name="Path 257" transform="translate(-278.407 -20.771)"/><path id="Path_258" fill="#f2f2f2" d="M232.652,20.306a.147.147,0,0,1-.146-.134l-.154-1.756a.147.147,0,1,1,.293-.026l.154,1.756a.147.147,0,0,1-.134.159Z" data-name="Path 258" transform="translate(-222.237 -18.214)"/><path id="Path_259" fill="#f2f2f2" d="M270.44,452.229a.147.147,0,0,1-.146-.134l-.154-1.756a.147.147,0,1,1,.293-.026l.154,1.756a.147.147,0,0,1-.134.159Z" data-name="Path 259" transform="translate(-258.247 -429.815)"/><path id="Path_260" fill="#f2f2f2" d="M192.524,27.379a.147.147,0,0,1-.142-.109l-.456-1.7a.147.147,0,1,1,.284-.076l.456,1.7a.147.147,0,0,1-.142.185Z" data-name="Path 260" transform="translate(-183.708 -25.005)"/><path id="Path_261" fill="#f2f2f2" d="M304.742,446.178a.147.147,0,0,1-.142-.109l-.456-1.7a.147.147,0,0,1,.284-.076l.456,1.7a.147.147,0,0,1-.142.185Z" data-name="Path 261" transform="translate(-290.646 -424.1)"/><path id="Path_262" fill="#f2f2f2" d="M154.236,41.317a.147.147,0,0,1-.133-.085l-.745-1.6a.147.147,0,1,1,.266-.124l.745,1.6a.147.147,0,0,1-.133.209Z" data-name="Path 262" transform="translate(-146.946 -38.388)"/><path id="Path_263" fill="#f2f2f2" d="M337.472,434.267a.147.147,0,0,1-.133-.085l-.745-1.6a.147.147,0,1,1,.266-.124l.745,1.6a.147.147,0,0,1-.133.209Z" data-name="Path 263" transform="translate(-321.561 -412.85)"/><path id="Path_264" fill="#f2f2f2" d="M118.948,61.689a.147.147,0,0,1-.12-.063l-1.011-1.444a.147.147,0,1,1,.241-.168l1.011,1.444a.147.147,0,0,1-.12.231Z" data-name="Path 264" transform="translate(-113.065 -57.948)"/><path id="Path_265" fill="#f2f2f2" d="M367.636,416.851a.147.147,0,0,1-.121-.063l-1.011-1.444a.147.147,0,0,1,.241-.168l1.011,1.444a.147.147,0,0,1-.12.231Z" data-name="Path 265" transform="translate(-350.052 -396.4)"/><path id="Path_266" fill="#f2f2f2" d="M87.735,87.882a.147.147,0,0,1-.1-.043l-1.246-1.246a.147.147,0,0,1,.208-.208l1.246,1.246a.147.147,0,0,1-.1.251Z" data-name="Path 266" transform="translate(-83.096 -83.096)"/><path id="Path_267" fill="#f2f2f2" d="M394.318,394.464a.147.147,0,0,1-.1-.043l-1.246-1.246a.147.147,0,1,1,.208-.208l1.246,1.246a.147.147,0,0,1-.1.251Z" data-name="Path 267" transform="translate(-375.255 -375.254)"/><path id="Path_268" fill="#f2f2f2" d="M61.544,119.095a.146.146,0,0,1-.084-.027l-1.444-1.011a.147.147,0,1,1,.169-.241l1.444,1.011a.147.147,0,0,1-.084.267Z" data-name="Path 268" transform="translate(-57.949 -113.065)"/><path id="Path_269" fill="#f2f2f2" d="M416.706,367.783a.146.146,0,0,1-.084-.027l-1.444-1.011a.147.147,0,0,1,.169-.241l1.444,1.011a.147.147,0,0,1-.084.267Z" data-name="Path 269" transform="translate(-396.401 -350.053)"/><path id="Path_270" fill="#f2f2f2" d="M41.17,154.383a.146.146,0,0,1-.062-.014l-1.6-.745a.147.147,0,1,1,.124-.266l1.6.745a.147.147,0,0,1-.062.28Z" data-name="Path 270" transform="translate(-38.388 -146.947)"/><path id="Path_271" fill="#f2f2f2" d="M434.12,337.619a.146.146,0,0,1-.062-.014l-1.6-.745a.147.147,0,0,1,.124-.266l1.6.745a.147.147,0,0,1-.062.28Z" data-name="Path 271" transform="translate(-412.849 -321.561)"/><path id="Path_272" fill="#f2f2f2" d="M27.233,192.67a.145.145,0,0,1-.038-.005l-1.7-.456a.147.147,0,1,1,.076-.284l1.7.456a.147.147,0,0,1-.038.289Z" data-name="Path 272" transform="translate(-25.006 -183.707)"/><path id="Path_273" fill="#f2f2f2" d="M446.031,304.886a.145.145,0,0,1-.038-.005l-1.7-.456a.147.147,0,0,1,.076-.284l1.7.456a.147.147,0,0,1-.038.289Z" data-name="Path 273" transform="translate(-424.1 -290.643)"/><path id="Path_274" fill="#f2f2f2" d="M20.158,232.8h-.013l-1.756-.154a.147.147,0,0,1,.026-.293l1.756.154a.147.147,0,0,1-.013.293Z" data-name="Path 274" transform="translate(-18.213 -222.234)"/><path id="Path_275" fill="#f2f2f2" d="M452.082,270.586h-.013l-1.756-.154a.147.147,0,0,1,.026-.293l1.756.154a.147.147,0,0,1-.013.293Z" data-name="Path 275" transform="translate(-429.815 -258.246)"/><path id="Path_276" fill="#f2f2f2" d="M18.4,270.588a.147.147,0,0,1-.013-.293l1.756-.154a.147.147,0,0,1,.026.293l-1.756.154Z" data-name="Path 276" transform="translate(-18.215 -258.248)"/><path id="Path_277" fill="#f2f2f2" d="M450.327,232.8a.147.147,0,0,1-.013-.293l1.756-.154a.147.147,0,0,1,.026.293l-1.756.154Z" data-name="Path 277" transform="translate(-429.816 -222.235)"/><path id="Path_278" fill="#f2f2f2" d="M25.532,304.886a.147.147,0,0,1-.038-.289l1.7-.456a.147.147,0,1,1,.076.284l-1.7.456A.147.147,0,0,1,25.532,304.886Z" data-name="Path 278" transform="translate(-25.007 -290.643)"/><path id="Path_279" fill="#f2f2f2" d="M444.331,192.671a.147.147,0,0,1-.038-.289l1.7-.456a.147.147,0,1,1,.076.284l-1.7.456A.148.148,0,0,1,444.331,192.671Z" data-name="Path 279" transform="translate(-424.102 -183.708)"/><path id="Path_280" fill="#f2f2f2" d="M39.572,337.619a.147.147,0,0,1-.062-.28l1.6-.745a.147.147,0,1,1,.124.266l-1.6.745A.146.146,0,0,1,39.572,337.619Z" data-name="Path 280" transform="translate(-38.387 -321.561)"/><path id="Path_281" fill="#f2f2f2" d="M432.523,154.384a.147.147,0,0,1-.062-.28l1.6-.745a.147.147,0,0,1,.124.266l-1.6.745A.146.146,0,0,1,432.523,154.384Z" data-name="Path 281" transform="translate(-412.85 -146.948)"/><path id="Path_282" fill="#f2f2f2" d="M60.1,367.783a.147.147,0,0,1-.084-.267L61.46,366.5a.147.147,0,0,1,.169.241l-1.444,1.011A.147.147,0,0,1,60.1,367.783Z" data-name="Path 282" transform="translate(-57.949 -350.052)"/><path id="Path_283" fill="#f2f2f2" d="M415.261,119.1a.147.147,0,0,1-.084-.267l1.444-1.011a.147.147,0,1,1,.169.241l-1.444,1.011A.147.147,0,0,1,415.261,119.1Z" data-name="Path 283" transform="translate(-396.4 -113.066)"/><path id="Path_284" fill="#f2f2f2" d="M86.49,394.464a.147.147,0,0,1-.1-.251l1.246-1.246a.147.147,0,1,1,.208.208l-1.246,1.246A.147.147,0,0,1,86.49,394.464Z" data-name="Path 284" transform="translate(-83.097 -375.254)"/><path id="Path_285" fill="#f2f2f2" d="M393.073,87.883a.147.147,0,0,1-.1-.251l1.246-1.246a.147.147,0,1,1,.208.208l-1.246,1.246A.147.147,0,0,1,393.073,87.883Z" data-name="Path 285" transform="translate(-375.256 -83.097)"/><path id="Path_286" fill="#f2f2f2" d="M117.937,416.851a.147.147,0,0,1-.12-.231l1.011-1.444a.147.147,0,0,1,.241.169l-1.011,1.444A.147.147,0,0,1,117.937,416.851Z" data-name="Path 286" transform="translate(-113.065 -396.4)"/><path id="Path_287" fill="#f2f2f2" d="M366.624,61.689a.147.147,0,0,1-.12-.231l1.011-1.444a.147.147,0,0,1,.241.168l-1.011,1.444A.147.147,0,0,1,366.624,61.689Z" data-name="Path 287" transform="translate(-350.052 -57.947)"/><path id="Path_288" fill="#f2f2f2" d="M153.489,434.266a.147.147,0,0,1-.133-.209l.745-1.6a.147.147,0,1,1,.266.124l-.745,1.6A.147.147,0,0,1,153.489,434.266Z" data-name="Path 288" transform="translate(-146.945 -412.849)"/><path id="Path_289" fill="#f2f2f2" d="M336.726,41.316a.147.147,0,0,1-.133-.209l.745-1.6a.147.147,0,1,1,.266.124l-.745,1.6A.147.147,0,0,1,336.726,41.316Z" data-name="Path 289" transform="translate(-321.56 -38.387)"/><path id="Path_290" fill="#f2f2f2" d="M192.067,446.178a.145.145,0,0,1-.038-.005.147.147,0,0,1-.1-.18l.456-1.7a.147.147,0,0,1,.284.076l-.456,1.7A.147.147,0,0,1,192.067,446.178Z" data-name="Path 290" transform="translate(-183.708 -424.1)"/><path id="Path_291" fill="#f2f2f2" d="M304.285,27.379a.145.145,0,0,1-.038-.005.147.147,0,0,1-.1-.18l.456-1.7a.147.147,0,1,1,.284.076l-.456,1.7A.147.147,0,0,1,304.285,27.379Z" data-name="Path 291" transform="translate(-290.646 -25.005)"/><path id="Path_292" fill="#f2f2f2" d="M232.5,452.227h-.013a.147.147,0,0,1-.134-.159l.154-1.756a.147.147,0,1,1,.293.026l-.154,1.756A.147.147,0,0,1,232.5,452.227Z" data-name="Path 292" transform="translate(-222.236 -429.813)"/><path id="Path_293" fill="#f2f2f2" d="M270.286,20.3h-.013a.147.147,0,0,1-.134-.159l.154-1.756a.147.147,0,1,1,.293.026l-.154,1.756A.147.147,0,0,1,270.286,20.3Z" data-name="Path 293" transform="translate(-258.246 -18.212)"/><path id="Path_294" fill="#f2f2f2" d="M96.524,96.524l6.49-9.4-9.4,6.49-6.49,9.4Z" data-name="Path 294" transform="translate(-83.841 -83.841)"/></g><path id="Path_295" fill="#ccc" d="M96.524,96.524l6.49-9.4L87.123,103.014Z" data-name="Path 295" transform="translate(-83.024 -83.439)"/><path id="Path_296" fill="#ff525d" d="M227.982,96.524l6.49-9.4-9.4,6.49Z" data-name="Path 296" transform="translate(-214.483 -83.439)"/><path id="Path_297" fill="#ef4152" d="M257.455,96.524l6.49-9.4L256,95.069Z" data-name="Path 297" transform="translate(-243.955 -83.439)"/></g></svg>